<svg width="134" height="40" viewBox="0 0 134 40" fill="none" xmlns="http://www.w3.org/2000/svg">
<g clip-path="url(#clip0_310_1293)">
<path fill-rule="evenodd" clip-rule="evenodd" d="M6.22137 0.976562C3.32347 0.976562 0.978516 3.31343 0.978516 6.19085V33.8099C0.978516 36.6873 3.32347 39.0242 6.22137 39.0242H127.779C130.676 39.0242 133.021 36.6873 133.021 33.8099V6.19085C133.021 3.31343 130.676 0.976562 127.779 0.976562H6.22137ZM-0.0214844 6.19085C-0.0214844 2.75644 2.77589 -0.0234375 6.22137 -0.0234375H127.779C131.224 -0.0234375 134.021 2.75644 134.021 6.19085V33.8099C134.021 37.2443 131.224 40.0242 127.779 40.0242H6.22137C2.77589 40.0242 -0.0214844 37.2443 -0.0214844 33.8099V6.19085Z" fill="currentColor"/>
<path fill-rule="evenodd" clip-rule="evenodd" d="M68.7917 8.57423V8.57519V8.57423ZM95.3065 12.5133V11.1295H95.8559C96.2617 11.1295 96.5814 11.1799 96.8197 11.2819C97.0561 11.3828 97.1758 11.5657 97.1758 11.8314C97.1758 11.9838 97.1375 12.1047 97.0638 12.1961C96.986 12.2922 96.8853 12.3675 96.7709 12.4152C96.6484 12.4685 96.5125 12.5047 96.366 12.5238C96.2177 12.5428 96.0751 12.5523 95.9334 12.5523C95.8312 12.553 95.7291 12.5498 95.6271 12.5428C95.5201 12.5347 95.4132 12.5252 95.3065 12.5142V12.5133ZM95.3065 9.27233C95.4491 9.25995 95.5592 9.24947 95.6386 9.24376C95.72 9.23709 95.8147 9.23423 95.9229 9.23423C96.301 9.23423 96.5785 9.28281 96.7546 9.38185C96.8391 9.42509 96.9091 9.4917 96.9563 9.57366C97.0035 9.65562 97.0259 9.74943 97.0207 9.84376C97.0238 9.94825 96.9918 10.0508 96.9298 10.1352C96.8616 10.2189 96.7734 10.2844 96.6733 10.3257C96.5518 10.3771 96.424 10.4123 96.2933 10.4304C96.1497 10.4523 95.9966 10.4628 95.8358 10.4628H95.3065V9.27233ZM96.4665 13.2295C96.7594 13.2038 97.036 13.1438 97.2992 13.0485C97.5644 12.9533 97.7845 12.8085 97.9654 12.618C98.1425 12.4276 98.2334 12.1704 98.2334 11.8447C98.2334 11.5209 98.1281 11.2666 97.9166 11.0828C97.7051 10.8971 97.4285 10.7761 97.0887 10.719L97.0782 10.6904C97.2016 10.6657 97.3174 10.6257 97.4304 10.5714C97.5424 10.518 97.641 10.4495 97.729 10.3666C97.8204 10.2811 97.8929 10.1776 97.9419 10.0626C97.9908 9.94767 98.0151 9.82382 98.0133 9.69899C98.0133 9.42566 97.9386 9.21042 97.7903 9.05138C97.6394 8.88942 97.4512 8.76651 97.2418 8.69328C97.0199 8.61253 96.7881 8.56129 96.5527 8.5409C96.3373 8.52012 96.1211 8.509 95.9047 8.50757C95.6013 8.50757 95.3065 8.51709 95.0184 8.53614C94.7799 8.54985 94.5422 8.57528 94.3063 8.61233V13.2095C94.7643 13.2436 95.2233 13.2629 95.6826 13.2676C95.9124 13.2676 96.1756 13.2542 96.4665 13.2295ZM44.6325 12.4676C44.3616 12.4676 44.0965 12.4295 43.8333 12.3533C43.6118 12.2925 43.3959 12.2128 43.1881 12.1152L42.9278 12.9057C43.1853 13.0523 43.4638 13.1571 43.7653 13.2209C44.0668 13.2838 44.3721 13.3161 44.6803 13.3161C44.9694 13.3161 45.2584 13.2819 45.5475 13.2152C45.8346 13.1495 46.0979 13.0399 46.3314 12.8876C46.5659 12.7333 46.7545 12.5371 46.899 12.2952C47.0445 12.0533 47.1163 11.7542 47.1163 11.398C47.119 11.2003 47.0807 11.0041 47.0038 10.8217C46.9269 10.6393 46.813 10.4746 46.6693 10.338C46.5296 10.2034 46.3665 10.0953 46.1878 10.019C46.0013 9.93837 45.805 9.88204 45.604 9.85138V9.8228C45.9773 9.73423 46.2835 9.55614 46.5247 9.28947C46.764 9.02281 46.8856 8.69138 46.8856 8.29709C46.8856 7.79995 46.7056 7.40566 46.3458 7.11423C45.9868 6.82185 45.4968 6.67614 44.8746 6.67614C44.4879 6.67614 44.1529 6.72185 43.8677 6.81423C43.6007 6.89832 43.3438 7.01172 43.102 7.15233L43.3298 7.88566C43.5364 7.78966 43.749 7.70695 43.9663 7.63804C44.2037 7.56185 44.441 7.52376 44.6784 7.52376C45.0249 7.52376 45.3006 7.60471 45.5063 7.76661C45.7121 7.92947 45.8155 8.15328 45.8155 8.43995C45.8172 8.58965 45.781 8.73738 45.7102 8.86947C45.6369 8.99886 45.5368 9.11121 45.4164 9.199C45.2824 9.29565 45.1324 9.36818 44.9732 9.41328C44.8028 9.46471 44.6181 9.48947 44.42 9.48947H43.9854V10.2733H44.42C44.6057 10.2733 44.7923 10.2904 44.9828 10.3219C45.1723 10.3533 45.3436 10.4104 45.4977 10.4933C45.6509 10.5761 45.7753 10.6885 45.8739 10.8323C45.9696 10.9752 46.0175 11.1571 46.0175 11.3809C46.0175 11.7114 45.8978 11.9742 45.6576 12.1723C45.4173 12.3685 45.0737 12.4676 44.6325 12.4676ZM87.3258 9.52852C87.5364 9.29995 87.792 9.18566 88.0944 9.18566C88.4285 9.18566 88.6831 9.29995 88.8601 9.52376C89.0362 9.74947 89.1243 10.0438 89.1243 10.4066H86.9592C86.9918 10.0495 87.1143 9.75709 87.3258 9.52852ZM89.6928 12.2942C89.3081 12.4409 88.8869 12.5133 88.4313 12.5133C87.9958 12.5133 87.6426 12.3933 87.3766 12.1552C87.1114 11.9171 86.9717 11.578 86.9583 11.1399H90.0776C90.091 11.0771 90.1006 11.0047 90.1063 10.9257C90.113 10.8457 90.1159 10.7609 90.1159 10.6723C90.1159 10.3419 90.0719 10.0409 89.9809 9.77233C89.8989 9.51688 89.7661 9.28044 89.5904 9.07709C89.4229 8.88243 89.2126 8.72863 88.9759 8.62757C88.7215 8.51997 88.4474 8.46644 88.171 8.47042C87.8569 8.46642 87.5457 8.53146 87.2598 8.6609C86.9923 8.78489 86.7542 8.96372 86.5611 9.18566C86.3641 9.41788 86.2125 9.68468 86.1141 9.97233C86.0073 10.2906 85.9546 10.6244 85.9581 10.9599C85.9581 11.3161 86.0098 11.6361 86.1141 11.9228C86.2194 12.2085 86.3744 12.4533 86.5716 12.6571C86.7716 12.8609 87.0157 13.019 87.3048 13.1295C87.5938 13.2399 87.9212 13.2961 88.2849 13.2961C88.8898 13.2961 89.4114 13.2009 89.8546 13.0104L89.6919 12.2942H89.6928ZM66.7836 13.6628C67.0497 13.1771 67.3244 12.5514 67.6068 11.7885L68.7917 8.57519H67.6843L66.8937 11.1504C66.8305 11.3542 66.7788 11.5342 66.7396 11.6895C66.7086 11.8194 66.6735 11.9484 66.6343 12.0761H66.6152C66.5682 11.9075 66.5197 11.7392 66.4697 11.5714C66.4303 11.4325 66.3853 11.2952 66.3347 11.1599L65.4484 8.57519H64.3037L65.9978 12.839C66.0361 12.9476 66.0552 13.0199 66.0552 13.058C66.0435 13.1321 66.0175 13.2033 65.9787 13.2676C65.8401 13.5606 65.64 13.8208 65.3919 14.0304C65.1692 14.2229 64.9059 14.3632 64.6214 14.4409L64.8722 15.3085C65.2771 15.239 65.659 15.0447 66.0179 14.7276C66.2629 14.5038 66.5156 14.1495 66.7836 13.6628ZM78.3402 11.5676V13.2076H79.3232V8.57233H77.9765L76.8212 10.7657C76.6987 11.0076 76.579 11.2447 76.4575 11.4771C76.3407 11.7104 76.2201 11.9457 76.0985 12.1876L76.0784 12.1695C76.0976 11.839 76.1129 11.5247 76.1263 11.2266C76.1407 10.9276 76.1454 10.5904 76.1454 10.2142V8.57423H75.1548V13.2085H76.5025C76.7141 12.82 76.9208 12.4288 77.1227 12.0352C77.3189 11.6542 77.517 11.2733 77.7161 10.8923C77.8243 10.6676 77.9334 10.4514 78.0415 10.2419C78.1516 10.0323 78.2607 9.78471 78.3689 9.49899H78.4167C78.3976 9.84757 78.3813 10.1942 78.3651 10.538C78.3507 10.8809 78.3402 11.2247 78.3402 11.5676ZM55.3104 9.4228H57.2562V8.57519H54.2699V13.2095H55.3104V9.4228ZM59.7773 10.5314C59.7773 10.3599 59.8099 10.198 59.8731 10.0457C59.9329 9.89994 60.0199 9.7668 60.1296 9.65328C60.2349 9.54471 60.3574 9.45804 60.5 9.39614C60.6416 9.33233 60.7862 9.3009 60.9336 9.3009C61.1202 9.3009 61.2877 9.339 61.4399 9.419C61.5902 9.499 61.7194 9.60661 61.8247 9.74376C61.93 9.87995 62.0104 10.0457 62.064 10.239C62.1195 10.4323 62.1472 10.6438 62.1472 10.8733C62.1472 11.3685 62.0362 11.7666 61.818 12.0619C61.5997 12.358 61.2944 12.5057 60.9029 12.5057C60.7354 12.5057 60.5842 12.4771 60.4464 12.4152C60.3108 12.357 60.1892 12.271 60.0894 12.1628C59.989 12.0516 59.911 11.9223 59.8597 11.7819C59.8033 11.6288 59.7754 11.4668 59.7773 11.3038V10.5323V10.5314ZM58.7369 10.0999V15.0999H59.7773V12.6571H59.7965C60.0664 13.0952 60.5096 13.3152 61.126 13.3152C61.4342 13.3152 61.7146 13.2542 61.9682 13.1342C62.2207 13.0145 62.4441 12.8416 62.6229 12.6276C62.8067 12.4123 62.9484 12.1514 63.0517 11.8466C63.1541 11.5419 63.2049 11.2038 63.2049 10.8352C63.2049 10.4847 63.1561 10.1657 63.0565 9.87519C62.9676 9.60398 62.829 9.35148 62.6478 9.13042C62.4797 8.92902 62.271 8.76486 62.0352 8.64852C61.7965 8.53411 61.5345 8.47578 61.2695 8.47804C60.5641 8.47804 60.0377 8.75519 59.6902 9.30757H59.6711L59.6137 8.57423H58.6986C58.7232 9.08245 58.7359 9.59115 58.7369 10.0999ZM51.2281 10.9019V11.6171C51.2292 11.7474 51.1997 11.8763 51.142 11.9933C51.087 12.1072 51.0103 12.2094 50.9161 12.2942C50.8226 12.3785 50.7142 12.4447 50.5964 12.4895C50.4749 12.538 50.3476 12.5619 50.2136 12.5619C50.0271 12.5686 49.8451 12.5038 49.7053 12.3809C49.5713 12.2599 49.5043 12.079 49.5043 11.838C49.5043 11.5066 49.6469 11.2676 49.9303 11.1209C50.2145 10.9742 50.6472 10.9019 51.2281 10.9019ZM49.1779 10.6485C48.7022 10.9371 48.4658 11.3723 48.4658 11.9504C48.4658 12.1466 48.5003 12.3285 48.5702 12.4942C48.6419 12.6599 48.7405 12.8028 48.8697 12.9238C48.997 13.0447 49.1473 13.1399 49.3225 13.2095C49.4948 13.2799 49.6862 13.3152 49.8996 13.3152C50.4969 13.3152 50.9525 13.1019 51.2664 12.6771H51.2951L51.3717 13.2104H52.3068C52.2619 12.9504 52.2389 12.5819 52.2389 12.1057V10.3971C52.2389 9.119 51.6263 8.47995 50.4031 8.47995C49.7618 8.47995 49.2277 8.61328 48.798 8.87995L49.0085 9.55614C49.3608 9.32852 49.7675 9.21328 50.2289 9.21328C50.8769 9.21328 51.2004 9.51804 51.2004 10.1285V10.2142C50.3265 10.2142 49.6536 10.359 49.1779 10.6485ZM71.2554 12.5799C71.0314 12.5799 70.8113 12.5495 70.595 12.4895C70.3971 12.4361 70.2057 12.3611 70.0245 12.2657L69.7536 12.9428C69.9786 13.0704 70.2322 13.1638 70.5155 13.2247C71.038 13.3389 71.5785 13.3451 72.1034 13.2428C72.3523 13.1952 72.582 13.1171 72.7907 13.0095C73.0003 12.9009 73.1726 12.7552 73.3065 12.5714C73.4434 12.3866 73.5076 12.1571 73.5076 11.8838C73.5106 11.7299 73.4751 11.5777 73.4042 11.4409C73.3341 11.3128 73.2395 11.1995 73.1257 11.1076C73.0071 11.0143 72.8755 10.9386 72.7351 10.8828C72.5906 10.8257 72.4403 10.7876 72.2872 10.7685V10.7399C72.4078 10.7142 72.5303 10.6733 72.648 10.6199C72.7658 10.5666 72.8739 10.4961 72.9696 10.4104C73.0654 10.3247 73.1419 10.2266 73.1994 10.1152C73.2603 9.99551 73.2906 9.86267 73.2874 9.72852C73.2874 9.49233 73.2348 9.29614 73.1285 9.13804C73.0246 8.97887 72.8846 8.84612 72.7198 8.75042C72.5425 8.6485 72.3489 8.57763 72.1475 8.5409C71.9361 8.50007 71.7214 8.47934 71.5062 8.479C71.2363 8.479 70.9692 8.50757 70.7022 8.5609C70.4342 8.61423 70.1662 8.71519 69.8982 8.85995L70.1662 9.52661C70.3279 9.439 70.5031 9.36471 70.6926 9.3028C70.8802 9.24281 71.0678 9.21233 71.2544 9.21233C71.5435 9.21233 71.7703 9.27042 71.9331 9.38471C72.0977 9.499 72.179 9.65138 72.179 9.84185C72.179 10.0266 72.0824 10.1819 71.8909 10.3095C71.6986 10.438 71.4248 10.5009 71.0726 10.5009H70.5921V11.1504H71.0822C71.2611 11.1504 71.4296 11.1609 71.5827 11.1838C71.7378 11.2057 71.8718 11.2457 71.9876 11.3028C72.0947 11.3539 72.1869 11.4312 72.2556 11.5276C72.3224 11.6275 72.3559 11.7458 72.3513 11.8657C72.3513 12.0685 72.2556 12.239 72.069 12.3761C71.8795 12.5123 71.6076 12.5799 71.2554 12.5799ZM82.365 13.2095H83.3881V9.4228H84.8124V8.57519H80.9503V9.4228H82.365V13.2095ZM102.126 28.5095C101.669 29.2742 101.034 29.658 100.226 29.658C99.4011 29.658 98.7618 29.2819 98.3043 28.5285C97.9243 27.9076 97.7367 27.1609 97.7367 26.2914C97.7367 25.3942 97.9243 24.6361 98.3043 24.0123C98.7484 23.2599 99.3944 22.8838 100.245 22.8838C101.067 22.8838 101.7 23.259 102.145 24.0123C102.525 24.6352 102.713 25.3809 102.713 26.2514C102.713 27.1209 102.516 27.8752 102.126 28.5095ZM100.32 21.3504C98.8699 21.3504 97.7166 21.8171 96.8618 22.7485C96.0052 23.6799 95.5793 24.878 95.5793 26.3399C95.5793 27.7371 95.9937 28.8971 96.8235 29.8161C97.6534 30.7333 98.7656 31.1933 100.164 31.1933C101.614 31.1933 102.777 30.7152 103.654 29.7561C104.489 28.8247 104.908 27.6342 104.908 26.1847C104.908 24.7723 104.504 23.6209 103.691 22.7295C102.843 21.8095 101.718 21.3504 100.32 21.3504ZM72.314 28.6304C71.8718 29.238 71.2516 29.5428 70.4543 29.5428C69.7737 29.5428 69.2215 29.3057 68.7965 28.8342C68.3734 28.3609 68.1609 27.7819 68.1609 27.0952V25.5219C68.1609 25.3552 68.1954 25.1428 68.2595 24.8838C68.374 24.3522 68.6674 23.8754 69.0913 23.5323C69.4896 23.2 69.9928 23.0179 70.5127 23.018C71.2841 23.018 71.8967 23.3295 72.3542 23.9514C72.7734 24.5466 72.9821 25.3038 72.9821 26.2219C72.9821 27.219 72.76 28.0219 72.315 28.6314L72.314 28.6304ZM71.1999 21.3495C69.7613 21.3495 68.6903 21.9123 67.9858 23.039H67.9456L67.8279 21.5438H65.9662C66.0171 22.5782 66.0432 23.6138 66.0447 24.6495V34.8247H68.16V29.8533H68.2002C68.7477 30.7466 69.6493 31.1933 70.9041 31.1933C72.0661 31.1933 73.0405 30.779 73.8234 29.9495C74.6992 29.019 75.1376 27.7504 75.1376 26.1457C75.1376 24.7085 74.7614 23.5504 74.012 22.6695C73.2597 21.7895 72.3217 21.3495 71.198 21.3495H71.1999ZM84.0763 23.4504C83.1479 23.0885 82.5066 22.7514 82.1553 22.4409C81.9619 22.2881 81.8065 22.0929 81.7012 21.8706C81.596 21.6482 81.5437 21.4047 81.5485 21.159C81.5485 20.6923 81.7256 20.2971 82.0778 19.9742C82.4942 19.6123 83.0761 19.4314 83.8198 19.4314C84.7626 19.4314 85.6039 19.6314 86.3486 20.0323L86.8779 18.3228C86.0806 17.9085 85.0823 17.7019 83.8801 17.7019C82.5325 17.7019 81.4547 18.0447 80.645 18.7323C79.8352 19.418 79.4294 20.3009 79.4294 21.3761C79.4294 23.0219 80.5856 24.2742 82.8981 25.1285C83.748 25.4399 84.3568 25.778 84.7205 26.1409C85.0871 26.5038 85.2699 26.9504 85.2699 27.4819C85.2699 28.078 85.0488 28.5552 84.6047 28.9114C84.1586 29.2676 83.5384 29.4466 82.7421 29.4466C81.6639 29.4554 80.6045 29.1659 79.6821 28.6104L79.192 30.358C80.0535 30.9019 81.1944 31.1733 82.6157 31.1733C84.1548 31.1733 85.3531 30.7923 86.2136 30.0276C86.9966 29.3285 87.3871 28.4228 87.3871 27.3095C87.3871 26.4047 87.1191 25.6466 86.585 25.0409C86.048 24.4333 85.2134 23.9038 84.0763 23.4504ZM92.0512 19.1933L89.9714 19.8123V21.5409H88.5816V23.1142H89.9714V27.8704C89.9714 29.0609 90.2078 29.9085 90.6777 30.4142C91.1487 30.919 91.8024 31.1714 92.638 31.1714C93.3175 31.1714 93.8669 31.0933 94.2833 30.939L94.2249 29.3485C93.9169 29.4195 93.6011 29.4518 93.285 29.4447C92.4609 29.4447 92.0503 28.8638 92.0503 27.6971V23.1161H94.3828V21.5409H92.0503V19.1914L92.0512 19.1933ZM45.8404 25.5228L46.9373 22.1057C47.2244 21.0199 47.434 20.1971 47.5642 19.6409H47.6025C47.9308 20.9361 48.1519 21.7571 48.2696 22.1057L49.3866 25.5228H45.8404ZM46.3477 17.8942L42.096 30.9799H44.2908L45.4671 27.1352H49.7589L50.9936 30.979H53.2477L48.975 17.8933H46.3486L46.3477 17.8942ZM109.729 21.8561C109.245 22.2295 108.893 22.7295 108.67 23.3495H108.612L108.534 21.5447H106.691C106.743 22.4371 106.77 23.4276 106.77 24.5161L106.75 30.979H108.865V26.0295C108.865 25.279 109.042 24.658 109.395 24.1657C109.8 23.6085 110.376 23.3304 111.119 23.3304C111.354 23.3304 111.577 23.3495 111.787 23.3885V21.3885C111.612 21.3626 111.435 21.3499 111.258 21.3504C110.707 21.3511 110.171 21.5284 109.729 21.8561ZM61.3605 28.6295C60.9163 29.2371 60.2961 29.5419 59.4988 29.5419C58.8192 29.5419 58.2679 29.3057 57.843 28.8333C57.4189 28.3599 57.2065 27.7809 57.2065 27.0942V25.5209C57.2065 25.3542 57.239 25.1419 57.3041 24.8828C57.4193 24.3513 57.713 23.8747 58.1368 23.5314C58.5608 23.1904 59.0356 23.0171 59.5572 23.0171C60.3277 23.0171 60.9422 23.3285 61.3997 23.9504C61.8189 24.5457 62.0276 25.3028 62.0276 26.2209C62.0276 27.218 61.8046 28.0209 61.3605 28.6304V28.6295ZM60.2435 21.3485C58.8058 21.3485 57.7348 21.9114 57.0294 23.038H56.9901L56.8715 21.5428H55.0108C55.0625 22.6047 55.0893 23.6399 55.0893 24.6485V34.8238H57.2045V29.8523H57.2447C57.7941 30.7457 58.6948 31.1923 59.9496 31.1923C61.1116 31.1923 62.086 30.778 62.8689 29.9485C63.7457 29.018 64.1831 27.7495 64.1831 26.1447C64.1831 24.7076 63.8079 23.5495 63.0556 22.6685C62.3052 21.7885 61.3672 21.3485 60.2435 21.3485ZM114.826 25.2695C114.89 24.6361 115.099 24.0923 115.451 23.639C115.881 23.0685 116.444 22.7847 117.136 22.7847C117.892 22.7847 118.456 23.0752 118.823 23.659C119.109 24.1114 119.247 24.6495 119.233 25.2695H114.826ZM121.251 25.8142C121.251 24.6371 120.97 23.6457 120.411 22.8447C119.706 21.8352 118.667 21.3314 117.294 21.3314C115.897 21.3314 114.785 21.8361 113.963 22.8457C113.178 23.7895 112.786 24.9742 112.786 26.398C112.786 27.8466 113.207 29.0019 114.049 29.8628C114.893 30.7228 116.053 31.1533 117.53 31.1533C118.757 31.1533 119.822 30.9599 120.723 30.5704L120.391 29.1152C119.621 29.4133 118.763 29.5628 117.823 29.5628C116.973 29.5628 116.281 29.3409 115.746 28.9019C115.157 28.4104 114.85 27.6971 114.826 26.7647H121.174C121.231 26.4511 121.256 26.1328 121.251 25.8142ZM29.9049 19.4542C29.8762 16.2847 32.5246 14.7428 32.6452 14.6714C31.1454 12.5047 28.8214 12.2085 28.0031 12.1857C26.0505 11.9819 24.1582 13.3428 23.1628 13.3428C22.1482 13.3428 20.6168 12.2047 18.9667 12.238C16.8418 12.2704 14.8548 13.4885 13.7656 15.3809C11.5163 19.238 13.1932 24.9076 15.3487 28.0257C16.4264 29.5523 17.686 31.258 19.3352 31.198C20.948 31.1323 21.55 30.179 23.4968 30.179C25.4255 30.179 25.9912 31.198 27.6729 31.1599C29.4034 31.1323 30.4936 29.6266 31.534 28.0847C32.7783 26.3342 33.2798 24.6104 33.2999 24.5228C33.2587 24.5085 29.9375 23.2523 29.9049 19.4542ZM26.7272 10.1342C27.5963 9.059 28.1897 7.59709 28.0251 6.11328C26.7693 6.16852 25.1986 6.97328 24.2951 8.02471C23.4949 8.95042 22.7799 10.4695 22.9647 11.8971C24.3755 12.0019 25.8237 11.1923 26.7282 10.1352L26.7272 10.1342Z" fill="currentColor"/>
</g>
<defs>
<clipPath id="clip0_310_1293">
<rect width="134" height="40" fill="white"/>
</clipPath>
</defs>
</svg>
