<svg width="134" height="40" viewBox="0 0 134 40" fill="none" xmlns="http://www.w3.org/2000/svg">
<g clip-path="url(#clip0_310_1294)">
<path fill-rule="evenodd" clip-rule="evenodd" d="M6.22137 0.976562C3.32347 0.976562 0.978516 3.31343 0.978516 6.19085V33.8099C0.978516 36.6873 3.32347 39.0242 6.22137 39.0242H127.779C130.676 39.0242 133.021 36.6873 133.021 33.8099V6.19085C133.021 3.31343 130.676 0.976562 127.779 0.976562H6.22137ZM-0.0214844 6.19085C-0.0214844 2.75644 2.77589 -0.0234375 6.22137 -0.0234375H127.779C131.224 -0.0234375 134.021 2.75644 134.021 6.19085V33.8099C134.021 37.2443 131.224 40.0242 127.779 40.0242H6.22137C2.77589 40.0242 -0.0214844 37.2443 -0.0214844 33.8099V6.19085Z" fill="currentColor"/>
<path fill-rule="evenodd" clip-rule="evenodd" d="M81.9213 29.7246H83.9676V17.1865H81.9213V29.7246ZM80.3094 9.35888H77.5222V6.81793H76.567V12.9351H77.5222V10.2608H80.3094V12.9351H81.2656V6.81793H80.3094V9.35888ZM58.387 28.1341C57.1045 28.1341 56.1004 27.0579 56.1004 25.6836C56.1004 24.2865 57.0834 23.2332 58.387 23.2332C59.6907 23.2332 60.6736 24.2865 60.6736 25.6836C60.6736 27.0579 59.6696 28.1341 58.387 28.1341ZM58.387 21.3875C55.9568 21.3875 54.054 23.2741 54.054 25.6836C54.054 28.0932 55.9568 29.9798 58.387 29.9798C60.8172 29.9798 62.72 28.0932 62.72 25.6836C62.72 23.2741 60.8172 21.3875 58.387 21.3875ZM76.8513 28.1341C75.5869 28.1341 74.5972 27.0646 74.5972 25.6989C74.5972 24.316 75.5869 23.2332 76.8513 23.2332C78.0822 23.2332 79.0116 24.2932 79.0116 25.6989C79.0116 27.0874 78.0822 28.1341 76.8513 28.1341ZM78.8833 22.2455C78.4583 21.8122 77.6916 21.3875 76.6914 21.3875C74.4469 21.3875 72.5499 23.3617 72.5499 25.6989C72.5499 28.0198 74.4469 29.9798 76.6914 29.9798C77.6983 29.9798 78.4621 29.5494 78.8833 29.1084V29.5341C78.8833 31.0408 78.0956 31.9046 76.723 31.9046C75.6663 31.9046 74.9772 31.1627 74.6843 30.4684L74.6479 30.3798L72.8562 31.1217L72.8935 31.2094C73.3816 32.3817 74.6776 33.7503 76.723 33.7503C79.2977 33.7503 80.833 32.0789 80.833 29.2798V21.6427H78.8833V22.2455ZM67.6311 28.1341C66.3485 28.1341 65.3445 27.0579 65.3445 25.6836C65.3445 24.2865 66.3275 23.2332 67.6311 23.2332C68.9347 23.2332 69.9177 24.2865 69.9177 25.6836C69.9177 27.0579 68.9137 28.1341 67.6311 28.1341ZM67.6311 21.3875C65.2019 21.3875 63.2981 23.2741 63.2981 25.6836C63.2981 28.0932 65.2019 29.9798 67.6311 29.9798C70.0613 29.9798 71.9651 28.0932 71.9651 25.6836C71.9651 23.2741 70.0613 21.3875 67.6311 21.3875ZM86.7012 25.4141C86.7165 24.6541 87.0448 24.1551 87.3272 23.8665C87.7273 23.456 88.2968 23.2017 88.8127 23.2017C89.4597 23.2017 90.0244 23.497 90.2532 23.9474L86.7012 25.4141ZM92.6796 24.6855L92.4518 24.1217C92.2795 23.6617 91.2974 21.3875 88.7495 21.3875C86.4246 21.3875 84.6721 23.2341 84.6721 25.6836C84.6721 28.1332 86.5136 29.9798 88.9563 29.9798C91.039 29.9798 92.1665 28.6484 92.5542 28.076L92.6078 27.996L91.0093 26.936L90.9557 27.0141C90.4398 27.7674 89.7871 28.1341 88.9563 28.1341C88.091 28.1341 87.465 27.7646 87.0429 27.0046L92.5915 24.7217L92.6796 24.6855ZM122.762 21.6351L120.67 26.9074L118.501 21.6351H116.294L119.641 29.2113L117.715 33.4694H119.857L124.974 21.7684L125.032 21.6351H122.762ZM112.323 28.1322C111.798 28.1322 110.966 27.8732 110.966 27.1789C110.966 26.3332 111.904 25.9551 112.834 25.9551C113.609 25.9551 113.982 26.1179 114.421 26.3284C114.344 26.8281 114.09 27.2842 113.706 27.6148C113.321 27.9453 112.831 28.1288 112.323 28.1322ZM112.546 21.3646C111.322 21.3646 109.788 21.876 109.154 23.3122L109.115 23.4008L110.93 24.1551L110.971 24.077C111.262 23.5103 111.803 23.2236 112.578 23.2236C113.454 23.2236 114.394 23.736 114.43 24.6846C113.856 24.4139 113.229 24.2727 112.594 24.2713C110.184 24.2713 108.923 25.7179 108.923 27.1465C108.923 28.7494 110.289 29.9589 112.099 29.9589C113.116 29.9589 113.88 29.6017 114.431 28.8674V29.7046H116.409V24.876C116.409 22.776 114.857 21.3646 112.546 21.3646ZM101.1 23.1379H98.5612V19.096H101.1C101.644 19.0912 102.168 19.3011 102.557 19.6799C102.946 20.0587 103.169 20.5754 103.176 21.117C103.169 21.6586 102.946 22.1755 102.557 22.5543C102.168 22.9331 101.644 23.143 101.1 23.1379ZM101.052 17.1875H96.5186V29.7246H98.5612V25.0465H101.052C103.1 25.0465 105.218 23.577 105.218 21.117C105.218 18.657 103.1 17.1875 101.052 17.1875ZM106.049 29.7246H108.092V17.1865H106.049V29.7246ZM94.3603 11.7408V11.7417C94.2799 11.832 94.1805 11.9033 94.0691 11.9508C93.9577 11.9982 93.8372 12.0205 93.7161 12.016H92.2718V10.2608H93.6817C93.9612 10.2608 94.1804 10.3503 94.3526 10.5332C94.5259 10.717 94.6101 10.9132 94.6101 11.1341C94.6079 11.3607 94.5185 11.5778 94.3603 11.7408ZM92.2718 7.73697H93.5994C93.7115 7.73192 93.8234 7.75178 93.9268 7.7951C94.0303 7.83843 94.1228 7.90413 94.1976 7.98745C94.3419 8.13731 94.4237 8.3361 94.4263 8.54364C94.4239 8.75429 94.3387 8.95563 94.189 9.10459C94.0339 9.27507 93.8291 9.35888 93.5659 9.35888H92.2718V7.73697ZM94.6742 9.76745C94.8627 9.65706 95.0239 9.50606 95.1461 9.32555C95.304 9.09602 95.3835 8.82745 95.3835 8.52745C95.3835 8.03888 95.2016 7.6265 94.8408 7.30174C94.4932 6.98482 94.0372 6.81178 93.5659 6.81793H91.3166V12.9351H93.6817C94.1918 12.9351 94.6407 12.7646 95.015 12.4294C95.3921 12.0922 95.5826 11.6627 95.5826 11.1513C95.5826 10.8113 95.4811 10.5075 95.2801 10.2484C95.1206 10.0413 94.9126 9.87618 94.6742 9.76745ZM52.3848 11.5103C52.1844 11.7168 51.9433 11.8799 51.6767 11.9895C51.4101 12.0991 51.1236 12.1529 50.8352 12.1475C50.2188 12.1475 49.7115 11.9398 49.2856 11.5103C48.8654 11.0865 48.6529 10.537 48.6529 9.87698C48.6529 9.21602 48.8654 8.6665 49.2856 8.24269C49.7057 7.81888 50.2274 7.60459 50.8352 7.60459C51.4449 7.60459 51.9656 7.81888 52.3848 8.24269C52.8059 8.6665 53.0194 9.21602 53.0194 9.87698C53.0194 10.537 52.8059 11.0865 52.3848 11.5103ZM50.8352 6.68555C49.9422 6.68555 49.1841 6.99793 48.583 7.61317C47.9838 8.2265 47.6795 8.98745 47.6795 9.87698C47.6795 10.7655 47.9838 11.5275 48.583 12.1408C49.1831 12.7551 49.9412 13.0665 50.8352 13.0665C51.7291 13.0665 52.4872 12.7551 53.0873 12.1408C53.6875 11.5265 53.9918 10.7646 53.9918 9.87698C53.9918 8.99412 53.6865 8.23412 53.0835 7.61698C52.4795 6.99888 51.7234 6.68555 50.8352 6.68555ZM62.3439 12.9351H63.302V7.73697H64.9655V6.81793H60.6803V7.73697H62.3439V12.9351ZM57.7486 13.0665C58.2435 13.0665 58.7077 12.9675 59.1269 12.7722C59.548 12.5789 59.9031 12.3094 60.1836 11.9732L60.2401 11.9065L59.5739 11.2436L59.5069 11.3198C59.0235 11.8694 58.4311 12.1475 57.7486 12.1475C57.1274 12.1475 56.5972 11.937 56.1722 11.5217C55.7472 11.1075 55.5319 10.5541 55.5319 9.87698C55.5319 9.19983 55.7472 8.6465 56.1732 8.23126C56.5981 7.81602 57.1284 7.60459 57.7486 7.60459C58.4138 7.60459 58.946 7.8465 59.3279 8.32269L59.3939 8.40459L60.0678 7.75507L60.0084 7.6865C59.4322 7.02269 58.6713 6.68555 57.7486 6.68555C56.8508 6.68555 56.0861 6.99317 55.4764 7.59888C54.8676 8.20459 54.5585 8.97031 54.5585 9.87698C54.5585 10.7817 54.8676 11.5484 55.4764 12.1532C56.0851 12.7589 56.8499 13.0665 57.7486 13.0665ZM67.0846 11.7236C67.008 11.8894 66.9276 12.0036 66.8443 12.0627C66.7659 12.1189 66.6462 12.1475 66.4893 12.1475C66.3655 12.1476 66.244 12.1151 66.137 12.0532L66.0308 11.9932L65.7752 12.8951L65.8527 12.9275C66.0738 13.0198 66.2854 13.0665 66.4816 13.0665C67.1344 13.0665 67.6311 12.6913 67.9575 11.9513L70.2709 6.81793H69.1616L67.7689 10.1103L66.3447 6.81793H65.2344L67.2818 11.2913L67.0846 11.7236ZM43.2709 9.84269V7.73697H45.5249V12.016H42.7827C43.1168 11.4465 43.2814 10.717 43.2709 9.84269ZM41.8974 12.9351H46.2227V14.1922H47.1463V12.016H46.4821V6.81793H42.3137V9.84459C42.3243 10.8617 42.0898 11.5922 41.6169 12.016H40.9747V14.1922H41.8974V12.9351ZM71.8502 7.73697H74.4374V12.9351H75.3945V6.81793H70.894V12.9351H71.8502V7.73697ZM83.6719 8.24269C84.0921 7.81888 84.6128 7.60459 85.2215 7.60459C85.8312 7.60459 86.3519 7.81888 86.7711 8.24269C87.1922 8.6665 87.4057 9.21602 87.4057 9.87698C87.4057 10.537 87.1922 11.0865 86.7711 11.5103C86.5707 11.7168 86.3296 11.8799 86.063 11.9895C85.7964 12.0991 85.5099 12.1529 85.2215 12.1475C84.9331 12.1527 84.6467 12.0989 84.3801 11.9893C84.1135 11.8797 83.8724 11.7166 83.6719 11.5103C83.2517 11.0865 83.0382 10.537 83.0382 9.87698C83.0382 9.21602 83.2517 8.6665 83.6719 8.24269ZM85.2215 13.0665C86.1155 13.0665 86.8735 12.7551 87.4746 12.1408C88.0747 11.5255 88.3781 10.7646 88.3781 9.87698C88.3781 8.99412 88.0728 8.23412 87.4698 7.61698C86.8659 6.99888 86.1097 6.68555 85.2215 6.68555C84.3285 6.68555 83.5714 6.99793 82.9712 7.61317C82.3702 8.2265 82.0658 8.98745 82.0658 9.87698C82.0658 10.7655 82.3702 11.5275 82.9712 12.1408C83.5704 12.7551 84.3275 13.0665 85.2215 13.0665ZM53.4979 22.677H47.2947V24.6494H51.5664C51.4343 25.5551 51.129 26.236 50.6323 26.7303C50.0819 27.2789 49.1468 28.0065 47.3904 28.0065C44.8071 28.0065 42.7846 25.9665 42.7846 23.3608C42.7846 20.7551 44.8071 18.7141 47.3904 18.7141C48.6031 18.7141 49.6684 19.1332 50.5547 19.9608L50.6227 20.0246L52.0211 18.6332L51.9493 18.5665C50.6581 17.3389 49.1669 16.7417 47.3904 16.7417C43.669 16.7417 40.6416 19.7103 40.6416 23.3608C40.6416 27.0103 43.669 29.9798 47.3904 29.9798C49.3076 29.9798 50.8266 29.3713 52.0316 28.1217C53.4051 26.7551 53.6109 24.8808 53.6109 23.8855C53.6109 23.456 53.5774 23.0751 53.5133 22.7532L53.4979 22.677Z" fill="currentColor"/>
<path fill-rule="evenodd" clip-rule="evenodd" d="M10.3579 7.44448C10.0688 7.74924 9.89844 8.22067 9.89844 8.83209V30.6759C9.89844 31.2883 10.0688 31.7597 10.3579 32.0635L10.4316 32.135L22.7289 19.8988V19.6102L10.4316 7.37305L10.3579 7.44448ZM26.8274 23.9788L22.7289 19.8988V19.6092L26.8284 15.5302L26.9212 15.5826L31.7778 18.3283C33.1647 19.113 33.1647 20.395 31.7778 21.1807L26.9212 23.9264L26.8274 23.9788Z" fill="currentColor" stroke="white"/>
<path fill-rule="evenodd" clip-rule="evenodd" d="M26.9208 23.9267L22.7285 19.7552L10.3574 32.0638C10.8149 32.5457 11.5701 32.6067 12.421 32.1248L26.9217 23.9267H26.9208ZM26.9208 15.5828L12.421 7.38475C11.5701 6.9038 10.8149 6.9638 10.3574 7.4457L22.7285 19.7543L26.9208 15.5828Z" fill="currentColor" stroke="white"/>
</g>
<defs>
<clipPath id="clip0_310_1294">
<rect width="134" height="40" fill="white"/>
</clipPath>
</defs>
</svg>
