<svg width="40" height="40" viewBox="0 0 40 40" fill="none" xmlns="http://www.w3.org/2000/svg">
<g clip-path="url(#clip0_310_1273)">
<path d="M0 19.2C0 10.149 0 5.62355 2.81177 2.81177C5.62355 0 10.149 0 19.2 0H20.8C29.851 0 34.3764 0 37.1882 2.81177C40 5.62355 40 10.149 40 19.2V20.8C40 29.851 40 34.3764 37.1882 37.1882C34.3764 40 29.851 40 20.8 40H19.2C10.149 40 5.62355 40 2.81177 37.1882C0 34.3764 0 29.851 0 20.8V19.2Z" fill="currentColor"/>
<rect x="6" y="6" width="28" height="28" rx="14" fill="#F9F9F9"/>
<path d="M11.1685 20.027C15.7328 18.0514 18.7756 16.7489 20.297 16.1196C24.646 14.3227 25.5486 14.0107 26.1381 14.0001C26.2677 13.998 26.5564 14.0299 26.7447 14.1812C26.9013 14.3088 26.9453 14.4813 26.9673 14.6025C26.9869 14.7235 27.0138 14.9994 26.9918 15.2148C26.7569 17.6745 25.737 23.6434 25.2184 26.3984C25.0007 27.5641 24.5678 27.9549 24.1495 27.9931C23.2396 28.0762 22.5498 27.3961 21.6692 26.8228C20.2921 25.9252 19.5143 25.3666 18.1763 24.4909C16.6304 23.4788 17.6333 22.9225 18.5139 22.0135C18.7438 21.7755 22.7504 18.1552 22.8262 17.8269C22.836 17.7858 22.8458 17.6327 22.7528 17.552C22.6623 17.471 22.5278 17.4987 22.4299 17.5206C22.2905 17.5517 20.0916 18.9974 15.8257 21.8574C15.202 22.2837 14.6369 22.4915 14.1282 22.4806C13.5705 22.4687 12.4942 22.1666 11.6944 21.9085C10.716 21.5918 9.9357 21.4243 10.0042 20.8864C10.0384 20.6064 10.4273 20.3199 11.1685 20.027Z" fill="currentColor"/>
</g>
<defs>
<clipPath id="clip0_310_1273">
<rect width="40" height="40" fill="white"/>
</clipPath>
</defs>
</svg>
