<svg width="134" height="123" viewBox="0 0 134 123" fill="none" xmlns="http://www.w3.org/2000/svg">
<path d="M12.1075 35.5823C15.251 25.6305 23.4604 18.1314 33.5765 15.9722L58.6373 10.6196C63.423 9.59384 68.3932 9.82965 73.0602 11.3038C77.7273 12.778 81.9311 15.44 85.2593 19.0286L102.698 37.8057C109.739 45.3841 112.151 56.2382 109.007 66.1899L101.795 89.0243C98.6512 98.9761 90.4418 106.475 80.3257 108.634L55.2648 113.987C50.4791 115.013 45.509 114.777 40.8419 113.303C36.1748 111.829 31.9711 109.167 28.6429 105.578L11.2039 86.8009C4.16358 79.2225 1.75139 68.3684 4.89486 58.4166L12.1075 35.5823Z" fill="#FB2E13"/>
<path d="M23.8051 72.7561L23.0125 69.8382L31.8212 67.4454L32.6138 70.3633L23.8051 72.7561ZM39.5666 63.2723L38.6469 59.8865L41.7978 56.2521L45.101 55.3548L50.3353 74.6237L47.0321 75.521L42.725 59.6655L39.5666 63.2723ZM60.9898 71.9955C56.7231 73.1546 53.4051 71.2774 51.618 64.6984L51.2292 63.267C49.457 56.7431 51.3817 53.3827 55.6209 52.2311C59.9151 51.0646 63.2056 52.9493 64.9927 59.5282L65.3815 60.9596C67.1537 67.4835 65.2289 70.844 60.9898 71.9955ZM60.1523 68.9125C62.2719 68.3367 63.2217 66.719 61.9131 61.9018L61.5243 60.4704C60.2307 55.7082 58.5229 54.7533 56.4584 55.3141C54.3113 55.8974 53.389 57.5076 54.6976 62.3248L55.0864 63.7562C56.38 68.5184 58.0602 69.4808 60.1523 68.9125ZM72.1458 58.6197C69.228 59.4123 66.8127 58.0289 66.0799 55.3312L65.8256 54.3953C65.0928 51.6976 66.4762 49.2823 69.3941 48.4897C72.312 47.6971 74.7273 49.0805 75.4601 51.7781L75.7143 52.7141C76.4471 55.4117 75.0637 57.827 72.1458 58.6197ZM71.5028 56.2523C72.714 55.9233 73.3154 54.8732 72.9341 53.4693L72.6799 52.5334C72.2985 51.1295 71.2484 50.528 70.0372 50.857C68.7985 51.1935 68.197 52.2437 68.5783 53.6475L68.8326 54.5835C69.2139 55.9873 70.2641 56.5888 71.5028 56.2523ZM88.8018 64.4406C85.8839 65.2332 83.4686 63.8498 82.7358 61.1521L82.4816 60.2162C81.7488 57.5186 83.1322 55.1032 86.05 54.3106C88.9679 53.518 91.3832 54.9014 92.116 57.5991L92.3703 58.535C93.1031 61.2326 91.7197 63.648 88.8018 64.4406ZM88.1587 62.0732C89.3699 61.7442 89.9714 60.6941 89.59 59.2902L89.3358 58.3543C88.9544 56.9504 87.9043 56.3489 86.6931 56.6779C85.4544 57.0144 84.8529 58.0646 85.2343 59.4685L85.4885 60.4044C85.8699 61.8083 86.92 62.4097 88.1587 62.0732ZM74.5581 68.0438L80.6099 45.709L83.6378 44.8865L77.586 67.2212L74.5581 68.0438Z" fill="white"/>
</svg>
