<svg width="40" height="40" viewBox="0 0 40 40" fill="none" xmlns="http://www.w3.org/2000/svg">
<g clip-path="url(#clip0_310_1270)">
<path d="M0 19.2C0 10.149 0 5.62355 2.81177 2.81177C5.62355 0 10.149 0 19.2 0H20.8C29.851 0 34.3764 0 37.1882 2.81177C40 5.62355 40 10.149 40 19.2V20.8C40 29.851 40 34.3764 37.1882 37.1882C34.3764 40 29.851 40 20.8 40H19.2C10.149 40 5.62355 40 2.81177 37.1882C0 34.3764 0 29.851 0 20.8V19.2Z" fill="currentColor"/>
<path d="M21.2833 28.816C12.1666 28.816 6.96667 22.566 6.75 12.166H11.3167C11.4667 19.7993 14.8333 23.0327 17.4999 23.6993V12.166H21.8001V18.7493C24.4334 18.466 27.1997 15.466 28.1331 12.166H32.4332C31.7165 16.2327 28.7165 19.2327 26.5832 20.466C28.7165 21.466 32.1333 24.0827 33.4333 28.816H28.6998C27.6832 25.6494 25.1501 23.1993 21.8001 22.866V28.816H21.2833Z" fill="white"/>
</g>
<defs>
<clipPath id="clip0_310_1270">
<rect width="40" height="40" fill="white"/>
</clipPath>
</defs>
</svg>
