<svg width="198" height="138" viewBox="0 0 198 138" fill="none" xmlns="http://www.w3.org/2000/svg">
<path d="M153.478 1.68375L193.008 24.24H193.015C196.099 25.9993 198 29.2537 198 32.7723V77.8848C198 81.4035 196.099 84.6579 193.015 86.4172L106.861 135.472C101.996 138.248 96.0037 138.248 91.1397 135.472L4.98512 86.4172C1.90101 84.6579 0 81.4035 0 77.8848V32.7723C0 29.2537 1.90101 25.9993 4.98512 24.24L44.5148 1.68375C47.5991 -0.0755713 51.3973 -0.0755713 54.4815 1.68375L95.132 24.8771C97.5239 26.2418 100.469 26.2418 102.861 24.8771L143.511 1.68375C146.595 -0.0755713 150.394 -0.0755713 153.478 1.68375Z" fill="#FB2E13"/>
<path fill-rule="evenodd" clip-rule="evenodd" d="M20.0174 43.0879H36.2055C42.5415 43.0879 45.7257 45.7702 45.7257 49.2561C45.7257 51.6595 44.3231 53.3695 41.5824 54.03C45.0406 54.7969 46.6526 57.0609 46.6526 60.0918C46.6526 64.3079 43.3638 67.4819 35.7259 67.4819H19.9922C19.9922 67.4819 20.5548 64.4253 20.5548 61.354V47.9278C20.5548 45.8473 20.0174 43.0916 20.0174 43.0916V43.0879ZM33.8759 52.8117C35.7259 52.8117 36.6167 52.1145 36.6167 50.8963C36.6167 49.4653 35.7943 48.7681 33.8074 48.7681H28.9426V52.8117H33.8759ZM37.4388 59.3982C37.4388 58.0039 36.411 57.3067 34.1501 57.3067H28.9426V61.8017H33.9083C36.339 61.8017 37.4353 61.0018 37.4353 59.3982H37.4388Z" fill="white"/>
<path d="M85.4404 67.4819H76.8434L74.0451 55.2482L70.4028 67.4819H62.0437L58.369 55.1785L55.4372 67.4819H47.2115L53.4466 47.0948H62.5487L66.4938 59.3616L70.2693 47.0948H79L85.4404 67.4819Z" fill="white"/>
<path fill-rule="evenodd" clip-rule="evenodd" d="M98.0261 46.1885C90.219 46.1885 85.6281 50.7899 85.6281 56.9911C85.6281 63.5777 90.6982 68.179 99.1224 68.179C102.992 68.179 106.555 67.1333 108.747 65.6692V59.6404C106.591 60.9651 104.297 61.732 101.283 61.732C97.514 61.732 95.1158 60.6495 94.1241 58.8038H109.432V56.4701C109.432 50.2652 105.834 46.1885 98.0261 46.1885ZM98.4374 52.2833C100.872 52.2833 102.343 53.2961 102.685 55.072H93.9149C94.3946 53.3988 96.0033 52.2833 98.4374 52.2833Z" fill="white"/>
<path d="M111.69 57.0939C111.691 50.927 116.35 46.1885 124.878 46.1885C128.851 46.1885 131.524 47.1646 133.406 48.3828V54.7601C131.967 53.7511 129.811 52.8778 127.207 52.8778C122.858 52.8778 120.424 54.6904 120.424 57.1636C120.424 59.6368 122.616 61.4495 127.24 61.4495C129.67 61.4495 132 60.6128 133.475 59.7065V65.8747C131.076 67.3388 128.13 68.1754 124.741 68.1754C116.143 68.1754 111.69 63.2254 111.69 57.0939Z" fill="white"/>
<path d="M135.22 53.1934H140.802V67.4819H149.194V53.1934H155.256V47.0948H135.22V53.1934Z" fill="white"/>
<path fill-rule="evenodd" clip-rule="evenodd" d="M156.118 56.9911C156.118 50.7899 160.709 46.1885 168.516 46.1885C176.323 46.1885 179.922 50.2652 179.922 56.4701V58.8038H164.614C165.606 60.6495 168.004 61.732 171.772 61.732C174.787 61.732 177.08 60.9651 179.237 59.6404V65.6692C177.044 67.1333 173.482 68.179 169.612 68.179C161.188 68.179 156.118 63.5777 156.118 56.9911ZM173.175 55.072C172.832 53.2961 171.361 52.2833 168.927 52.2833C166.493 52.2833 164.884 53.3988 164.405 55.072H173.175Z" fill="white"/>
<path fill-rule="evenodd" clip-rule="evenodd" d="M53.0175 86.5149C53.0175 80.3137 57.6081 75.7123 65.4155 75.7123C73.2228 75.7123 76.8219 79.7889 76.8219 85.9939V88.3276H61.5136C62.5053 90.1733 64.9034 91.2557 68.6719 91.2557C71.6866 91.2557 73.9801 90.4888 76.1366 89.1642V95.193C73.9442 96.657 70.3812 97.7028 66.5117 97.7028C58.0878 97.7028 53.0175 93.1014 53.0175 86.5149ZM70.0748 84.5958C69.7321 82.8198 68.2608 81.8071 65.8266 81.8071C63.3924 81.8071 61.7841 82.9226 61.3045 84.5958H70.0748Z" fill="white"/>
<path d="M78.8412 86.6213C78.8412 80.4531 83.5004 75.7123 92.0291 75.7123C96.0029 75.7123 98.6751 76.6883 100.557 77.9066V84.2839C99.1189 83.2748 96.9622 82.4015 94.3587 82.4015C90.0094 82.4015 87.5752 84.2142 87.5752 86.6873C87.5752 89.1605 89.7678 90.9732 94.3911 90.9732C96.8217 90.9732 99.1513 90.1366 100.623 89.2302V95.3984C98.2244 96.8626 95.2782 97.6991 91.8886 97.6991C83.2912 97.6991 78.8377 92.7492 78.8377 86.6176L78.8412 86.6213Z" fill="white"/>
<path d="M102.368 82.7171H107.95V97.0057H116.342V82.7171H122.404V76.6186H102.368V82.7171Z" fill="white"/>
<path fill-rule="evenodd" clip-rule="evenodd" d="M146.897 89.4027C146.897 96.8992 139.006 97.7799 135.357 97.7799C132.393 97.7799 128.405 96.9616 126.706 95.3287C125.007 93.6959 124.16 91.4612 124.16 88.6285V76.6186H132.465V82.3355C133.666 81.4842 136.276 80.7503 137.885 80.7503C146.295 80.7503 146.897 87.1754 146.897 89.4027ZM138.996 89.2963C138.994 87.1117 137.495 86.4855 135.382 86.4855C134.34 86.4855 133.157 86.9699 132.461 87.4543V88.6505C132.461 91.1273 133.475 92.3639 135.501 92.3639C138.346 92.3639 138.996 90.3054 138.996 89.2963Z" fill="white"/>
</svg>
