<svg width="351" height="37" viewBox="0 0 351 37" fill="none" xmlns="http://www.w3.org/2000/svg">
<g clip-path="url(#clip0_319_1361)">
<path d="M31.8429 7.86685H20.1364V35.8328H12.3372V7.86685H0.630615V0.55957H31.8429V7.86685Z" fill="#FB2E13"/>
<path d="M40.1926 0.55957H51.4116L64.8204 35.8328H56.2862L53.6555 28.5255H37.9487L35.318 35.8328H26.7761L40.1926 0.55957ZM51.017 21.2182L45.8021 6.81154L40.5872 21.2182H51.017Z" fill="#FB2E13"/>
<path d="M73.8807 35.8328H66.0815V0.55957H79.4439L91.9241 30.4363V0.55957H99.7234V35.8328H86.361L73.8807 5.94809V35.8328Z" fill="#FB2E13"/>
<path d="M112.366 0.55957V21.4741C112.366 26.1111 114.656 29.0292 118.951 29.0292C123.245 29.0292 125.535 26.1031 125.535 21.4741V0.55957H133.334V21.4741C133.334 30.5482 127.872 36.3365 118.951 36.3365C110.029 36.3365 104.567 30.5402 104.567 21.4741V0.55957H112.366Z" fill="#FB2E13"/>
<path d="M168.879 35.8328H159.858L150.643 20.9704L145.962 26.263V35.8408H138.162V0.55957H145.962V14.8224L158.395 0.55957H168.144L155.711 14.9183L168.879 35.8328Z" fill="#FB2E13"/>
<path d="M170.249 0.55957H178.048V35.8328H170.249V0.55957Z" fill="#FB2E13"/>
<path d="M207.875 0.55957V5.85216H188.61V15.9336H206.405V21.2262H188.61V35.8408H183.248V0.55957H207.875Z" fill="#FB2E13"/>
<path d="M219.791 0.55957H227.203L241.246 35.8328H235.196L231.931 27.2623H215.056L211.79 35.8328H205.74L219.791 0.55957ZM230.035 22.2256L223.505 5.14061L216.974 22.2256H230.035Z" fill="#FB2E13"/>
<path d="M276.591 35.8328V3.62958L266.594 35.8328H258.3L248.303 3.62958V35.8328H242.941V0.55957H252.938L262.447 31.5476L271.956 0.55957H281.952V35.8328H276.591Z" fill="#FB2E13"/>
<path d="M287.655 0.55957H293.017V35.8328H287.655V0.55957Z" fill="#FB2E13"/>
<path d="M303.965 0.55957V30.5402H324.446V35.8328H298.603V0.55957H303.965Z" fill="#FB2E13"/>
<path d="M334.605 16.5812L344.849 0.55957H350.946L337.29 21.4741V35.8328H331.928V21.4741L318.271 0.55957H324.856L334.605 16.5812Z" fill="#FB2E13"/>
</g>
<defs>
<clipPath id="clip0_319_1361">
<rect width="350.5" height="36.7762" fill="white" transform="translate(0.5)"/>
</clipPath>
</defs>
</svg>
