<svg viewBox="0 0 394 414" fill="none" xmlns="http://www.w3.org/2000/svg" preserveAspectRatio="none">
<path d="M0 160.659C0 120.266 21.594 83.0197 56.4733 63.258L142.877 14.2882C159.373 4.92371 178.023 0 197 0C215.977 0 234.627 4.92371 251.123 14.2882L337.527 63.258C372.406 83.0197 394 120.266 394 160.659V253.341C394 293.734 372.406 330.98 337.527 350.742L251.123 399.712C234.627 409.076 215.977 414 197 414C178.023 414 159.373 409.076 142.877 399.712L56.4733 350.742C21.594 330.98 0 293.734 0 253.341V160.659Z" fill="black"/>
</svg>
